<svg width="18" height="18" viewBox="0 0 18 18" fill="none" xmlns="http://www.w3.org/2000/svg">
<path d="M0.494077 0.494077C0.81053 0.17772 1.23967 0 1.68714 0C2.1346 0 2.56375 0.17772 2.8802 0.494077L8.8472 6.46108L14.8142 0.494077C15.1325 0.186685 15.5587 0.0165948 16.0012 0.0204396C16.4436 0.0242845 16.8669 0.201757 17.1798 0.514633C17.4926 0.82751 17.6701 1.25076 17.674 1.69321C17.6778 2.13567 17.5077 2.56194 17.2003 2.8802L11.2333 8.8472L17.2003 14.8142C17.5077 15.1325 17.6778 15.5587 17.674 16.0012C17.6701 16.4436 17.4926 16.8669 17.1798 17.1798C16.8669 17.4926 16.4436 17.6701 16.0012 17.674C15.5587 17.6778 15.1325 17.5077 14.8142 17.2003L8.8472 11.2333L2.8802 17.2003C2.56194 17.5077 2.13567 17.6778 1.69321 17.674C1.25076 17.6701 0.82751 17.4926 0.514633 17.1798C0.201757 16.8669 0.0242845 16.4436 0.0204396 16.0012C0.0165948 15.5587 0.186685 15.1325 0.494077 14.8142L6.46108 8.8472L0.494077 2.8802C0.17772 2.56375 0 2.1346 0 1.68714C0 1.23967 0.17772 0.81053 0.494077 0.494077Z" fill="black"/>
</svg>
