<svg fill="none" height="21" viewBox="0 0 20 21" width="20" xmlns="http://www.w3.org/2000/svg"><path d="M10 20.7734C4.48516 20.7734 0 16.2883 0 10.7734C0 5.2586 4.48516 0.773438 10 0.773438C15.5148 0.773438 20 5.2586 20 10.7734C20.0037 16.2883 15.5148 20.7734 10 20.7734Z" fill="var(--icon-fill)" stroke="var(--icon-stroke)"/><path clip-rule="evenodd" d="M8.43435 10.8208V16.6178C8.43435 16.7021 8.5003 16.7681 8.58458 16.7681H10.7356C10.8198 16.7681 10.8858 16.7021 10.8858 16.6178V10.7256H12.4468C12.5238 10.7256 12.5897 10.6669 12.597 10.5863L12.7473 8.81277C12.7546 8.72482 12.685 8.64787 12.597 8.64787H10.8858V7.38733C10.8858 7.09052 11.124 6.85234 11.4208 6.85234H12.6227C12.707 6.85234 12.7729 6.78638 12.7729 6.7021V4.92856C12.7729 4.84428 12.707 4.77832 12.6227 4.77832H10.589C9.39807 4.77832 8.43068 5.74571 8.43068 6.93662V8.64787H7.35336C7.26908 8.64787 7.20312 8.71383 7.20312 8.79811V10.5717C7.20312 10.6559 7.26908 10.7219 7.35336 10.7219H8.43068V10.8208H8.43435Z" fill="#333033" fill-rule="evenodd"/></svg>