<svg width="51" height="51" viewBox="0 0 51 51" fill="none" xmlns="http://www.w3.org/2000/svg">
<path d="M11.3675 36.8028L11.7182 37.2701L11.2909 37.6684L4.59289 43.9133L26.436 44.6582C37.2847 45.0282 46.378 36.5499 46.7472 25.7238C47.1165 14.8963 38.6219 5.81814 27.7733 5.44815C16.9247 5.07815 7.83138 13.5565 7.4621 24.384C7.30369 29.0287 8.7766 33.3511 11.3675 36.8028Z" fill="#BBABE8" stroke="black" stroke-width="1.3"/>
<path d="M26.8769 14.4556C24.7438 14.4554 22.6584 15.0878 20.8847 16.2729C19.1109 17.4579 17.7284 19.1424 16.912 21.1134C16.0956 23.0843 15.8819 25.2531 16.298 27.3455C16.7141 29.4379 17.7413 31.3598 19.2496 32.8684C20.758 34.3769 22.6798 35.4042 24.772 35.8203C26.8641 36.2364 29.0327 36.0227 31.0034 35.2062C32.9741 34.3897 34.6585 33.0071 35.8435 31.2331C37.0284 29.4592 37.6608 27.3737 37.6605 25.2403C37.6602 22.3801 36.524 19.6372 34.5017 17.6147C32.4795 15.5923 29.7368 14.4559 26.8769 14.4556ZM34.2212 22.529C34.2245 22.8042 34.1864 23.0784 34.1081 23.3424C34.0684 23.4665 34.0217 23.5882 33.9683 23.7071C33.95 23.7462 33.9297 23.7844 33.9075 23.8214C33.8662 23.898 33.8212 23.9734 33.7738 24.0451C33.7353 24.1064 33.6927 24.1649 33.6461 24.2202C33.6255 24.247 33.6036 24.2713 33.5841 24.298L33.5756 24.3065C33.5756 24.3065 33.5756 24.3065 33.5659 24.3151L31.0688 26.8124L30.811 27.0702L28.1668 29.6977L26.9863 30.8722L26.1851 30.071L25.3487 29.2369L24.8709 28.7505L20.0979 23.9503C19.2919 22.9971 19.3818 21.5392 20.1526 20.5763L20.5502 20.1787C21.5981 19.3276 23.2005 19.4613 23.998 20.2504L24.0941 20.3465L26.1851 22.535L27.058 23.4518L28.1631 22.2773L29.6148 20.7356C29.6306 20.7173 29.6451 20.7027 29.6609 20.6869C29.6904 20.6535 29.7229 20.6229 29.7582 20.5957C29.8063 20.5473 29.8583 20.5029 29.9138 20.4632C29.9723 20.4164 30.0332 20.3725 30.0962 20.3319C30.1821 20.2713 30.2733 20.2184 30.3685 20.1738C30.4763 20.1188 30.588 20.0721 30.7028 20.034C31.223 19.8615 31.783 19.8496 32.31 19.9999C32.3903 20.0243 32.4681 20.0498 32.5459 20.0802C32.6223 20.1111 32.6969 20.146 32.7696 20.1848C32.8075 20.2027 32.8444 20.2226 32.8802 20.2443C32.9522 20.2854 33.0219 20.33 33.0893 20.3781C33.1592 20.4255 33.2258 20.4775 33.2887 20.5337C33.3215 20.5641 33.3544 20.5909 33.3848 20.62C33.4151 20.6492 33.4504 20.682 33.4808 20.7161C33.8851 21.1346 34.1412 21.6739 34.2102 22.2517C34.2169 22.2964 34.2206 22.3415 34.2212 22.3867C34.2236 22.4109 34.2236 22.4354 34.2212 22.4596L34.2212 22.529Z" fill="#ACE4D9"/>
<path d="M34.2059 22.2469C34.1369 21.6691 33.8807 21.1298 33.4764 20.7113C33.446 20.6772 33.4132 20.6456 33.3804 20.6152C33.3476 20.5848 33.3172 20.5593 33.2843 20.5289C33.2214 20.4727 33.1548 20.4207 33.085 20.3732C33.0176 20.3252 32.9478 20.2805 32.8759 20.2395C32.84 20.2177 32.8031 20.1979 32.7652 20.1799C32.6926 20.1411 32.6179 20.1062 32.5415 20.0754C32.4637 20.045 32.3859 20.0194 32.3057 19.9951C31.7787 19.8448 31.2186 19.8566 30.6985 20.0292C30.5836 20.0672 30.4719 20.114 30.3641 20.169C30.2689 20.2136 30.1777 20.2664 30.0918 20.327C30.0288 20.3677 29.968 20.4115 29.9094 20.4584C29.8539 20.4981 29.8019 20.5424 29.7538 20.5909C29.7185 20.6181 29.686 20.6486 29.6566 20.6821C29.6408 20.6979 29.6262 20.7125 29.6104 20.7307L28.1588 22.2724L27.0537 23.447L26.1808 22.5302L24.0897 20.3416L23.9936 20.2456C23.1961 19.4565 21.5937 19.3227 20.5458 20.1738L20.1482 20.5714C19.3774 21.5344 19.2875 22.9922 20.0935 23.9455L24.8665 28.7482L25.3443 29.2345L26.1808 30.0686L26.9819 30.8699L28.1624 29.6953L30.8067 27.0678L31.0644 26.8101L33.5615 24.3127C33.5615 24.3127 33.5713 24.3127 33.5713 24.3042L33.5798 24.2956C33.5992 24.2689 33.6211 24.2446 33.6418 24.2178C33.6883 24.1625 33.731 24.104 33.7694 24.0427C33.8168 23.971 33.8618 23.8956 33.9032 23.819C33.9253 23.782 33.9456 23.7438 33.9639 23.7047C34.0173 23.5858 34.064 23.4641 34.1038 23.34C34.182 23.076 34.2201 22.8018 34.2168 22.5266L34.2168 22.4585C34.2193 22.4342 34.2193 22.4098 34.2168 22.3855C34.2164 22.3391 34.2127 22.2928 34.2059 22.2469Z" fill="#7869D8"/>
</svg>
