<svg fill="none" height="21" viewBox="0 0 20 21" width="20" xmlns="http://www.w3.org/2000/svg"><path d="M10 20.7734C4.48807 20.7734 0 16.289 0 10.7734C0 5.26151 4.4844 0.773438 10 0.773438C15.5119 0.773438 20 5.25784 20 10.7734C20 16.289 15.5156 20.7734 10 20.7734Z" fill="var(--icon-fill)" stroke="var(--icon-stroke)"/><path d="M15.6527 11.5332V15.2653C15.6527 15.3571 15.5793 15.4341 15.4839 15.4341H13.5573C13.4656 15.4341 13.3885 15.3607 13.3885 15.2653V11.7938C13.3885 10.88 13.0619 10.2561 12.2436 10.2561C11.6197 10.2561 11.2491 10.6745 11.0839 11.0818C11.0252 11.2286 11.0105 11.4305 11.0105 11.6323V15.2653C11.0105 15.3571 10.9371 15.4341 10.8417 15.4341H8.91511C8.82336 15.4341 8.7463 15.3607 8.7463 15.2653C8.74997 14.3405 8.76832 9.85614 8.74997 8.79926C8.74997 8.70752 8.82337 8.63045 8.91878 8.63045H10.8417C10.9335 8.63045 11.0105 8.70385 11.0105 8.79926V9.59559C11.0069 9.60293 10.9995 9.61027 10.9958 9.61761H11.0105V9.59559C11.3114 9.13321 11.8472 8.47266 13.0472 8.47266C14.5371 8.47266 15.6527 9.44513 15.6527 11.5332ZM5.40318 15.4341H7.32979C7.42153 15.4341 7.49859 15.3607 7.49859 15.2653V8.79926C7.49859 8.70752 7.4252 8.63045 7.32979 8.63045H5.40318C5.31144 8.63045 5.23438 8.70385 5.23438 8.79926V15.2653C5.23804 15.3571 5.31144 15.4341 5.40318 15.4341Z" fill="#333033"/><path d="M6.29695 7.77358C6.96577 7.77358 7.50795 7.23139 7.50795 6.56257C7.50795 5.89375 6.96577 5.35156 6.29695 5.35156C5.62813 5.35156 5.08594 5.89375 5.08594 6.56257C5.08594 7.23139 5.62813 7.77358 6.29695 7.77358Z" fill="#333033"/></svg>