<svg fill="none" height="21" viewBox="0 0 20 21" width="20" xmlns="http://www.w3.org/2000/svg"><path d="M10 20.7734C4.48516 20.7734 2.24188e-06 16.2883 2.24188e-06 10.7734C-0.0036621 5.2586 4.48516 0.773438 10 0.773438C15.5148 0.773438 20 5.2586 20 10.7734C20 16.2883 15.5148 20.7734 10 20.7734Z" fill="var(--icon-fill)" stroke="var(--icon-stroke)"/><path d="M16.0482 6.98935C15.6781 7.15791 15.2714 7.25684 14.872 7.32647C15.0625 7.29349 15.341 6.9527 15.4546 6.81346C15.6268 6.60093 15.7661 6.35908 15.8467 6.09891C15.8577 6.07692 15.865 6.05127 15.843 6.03662C15.8174 6.02562 15.8027 6.03295 15.7807 6.04028C15.3337 6.27846 14.872 6.45435 14.381 6.57528C14.3406 6.58627 14.3113 6.57528 14.2857 6.54963C14.2454 6.50199 14.2051 6.46168 14.1648 6.42504C13.9596 6.24915 13.736 6.1099 13.4869 6.01097C13.1607 5.87905 12.8016 5.82042 12.4462 5.84241C12.1017 5.86439 11.7646 5.96333 11.4605 6.1209C11.1563 6.28213 10.8815 6.50199 10.6653 6.76949C10.4418 7.04798 10.2769 7.3741 10.1889 7.72222C10.1083 8.05567 10.112 8.38913 10.1633 8.72625C10.1706 8.78121 10.167 8.78854 10.1157 8.78121C8.19554 8.49539 6.60155 7.8065 5.30803 6.33343C5.25307 6.27114 5.22009 6.27114 5.17612 6.33709C4.61181 7.18356 4.88664 8.54669 5.59019 9.21727C5.68546 9.30521 5.78073 9.39682 5.887 9.47744C5.85036 9.48477 5.37766 9.43347 4.95992 9.21727C4.90496 9.18063 4.87564 9.20261 4.87198 9.26491C4.86831 9.35651 4.87564 9.44079 4.88664 9.53973C4.99657 10.4009 5.59019 11.196 6.40734 11.5038C6.50261 11.5441 6.61254 11.5808 6.71514 11.5991C6.52826 11.6394 6.33771 11.6687 5.80638 11.6284C5.74043 11.6174 5.71478 11.6504 5.74043 11.7127C6.13984 12.8047 7.00463 13.1271 7.65322 13.314C7.74116 13.3287 7.82544 13.3287 7.91338 13.3507C7.90972 13.358 7.90239 13.358 7.89873 13.3653C7.68253 13.6914 6.93867 13.9369 6.59422 14.0579C5.96395 14.2777 5.27872 14.3767 4.61181 14.3107C4.50554 14.2961 4.48356 14.2961 4.45424 14.3107C4.42493 14.329 4.45058 14.3547 4.48356 14.3803C4.61914 14.4683 4.75472 14.5489 4.89763 14.6258C5.31903 14.8494 5.76241 15.0289 6.22412 15.1572C8.60594 15.8131 11.2882 15.3331 13.0764 13.5559C14.4799 12.1597 14.9709 10.236 14.9709 8.31218C14.9709 8.23522 15.0589 8.19492 15.1138 8.15461C15.4803 7.87978 15.7697 7.54999 16.0409 7.18356C16.1032 7.10294 16.0995 7.02965 16.0995 6.99668C16.0995 6.99301 16.0995 6.98568 16.0995 6.98568C16.0922 6.96003 16.0959 6.96736 16.0482 6.98935Z" fill="#333033"/><path clip-rule="evenodd" d="M8.28906 15.4086C8.28906 15.3902 8.49534 15.4086 8.28906 15.4086C8.28906 15.3975 8.31485 15.4086 8.28906 15.4086Z" fill="#333033" fill-rule="evenodd"/><path clip-rule="evenodd" d="M12.4075 5.85449C12.3964 5.8656 12.3779 5.8656 12.3594 5.85449C12.3779 5.85449 12.3964 5.85449 12.4075 5.85449Z" fill="#333033" fill-rule="evenodd"/></svg>