<svg width="42" height="42" viewBox="0 0 42 42" fill="none" xmlns="http://www.w3.org/2000/svg">
<path d="M21.0002 1.33578e-07C16.8471 -0.000468063 12.787 1.23084 9.33356 3.53817C5.88011 5.84549 3.18841 9.1252 1.59883 12.9625C0.00926232 16.7999 -0.406771 21.0225 0.40336 25.0963C1.21349 29.1701 3.21339 32.9122 6.15014 35.8492C9.08688 38.7863 12.8286 40.7864 16.902 41.5966C20.9754 42.4068 25.1975 41.9907 29.0345 40.401C32.8714 38.8113 36.1508 36.1193 38.4579 32.6655C40.765 29.2117 41.9962 25.1512 41.9957 20.9976C41.9951 15.4289 39.7829 10.0884 35.8456 6.15077C31.9083 2.21308 26.5684 0.000627843 21.0002 1.33578e-07ZM35.2994 15.7186C35.3058 16.2546 35.2317 16.7885 35.0793 17.3023C35.0019 17.544 34.911 17.781 34.8071 18.0125C34.7714 18.0886 34.7319 18.1629 34.6887 18.235C34.6083 18.3842 34.5207 18.5309 34.4284 18.6706C34.3535 18.7898 34.2704 18.9037 34.1798 19.0115C34.1396 19.0636 34.097 19.1109 34.0591 19.163L34.0425 19.1796C34.0425 19.1796 34.0425 19.1796 34.0236 19.1961L29.1617 24.0585L28.6599 24.5604L23.5117 29.676L21.2133 31.9628L19.6534 30.4028L18.0249 28.7788L17.0946 27.8319L7.80172 18.486C6.23239 16.63 6.40754 13.7917 7.90823 11.9168L8.68225 11.1427C10.7226 9.48562 13.8424 9.74602 15.3951 11.2824L15.5821 11.4694L19.6534 15.7305L21.3529 17.5154L23.5045 15.2286L26.3308 12.2269C26.3616 12.1914 26.39 12.163 26.4207 12.1322C26.478 12.0671 26.5414 12.0076 26.6101 11.9547C26.7037 11.8603 26.805 11.774 26.9131 11.6966C27.027 11.6055 27.1455 11.5201 27.2681 11.441C27.4354 11.323 27.6129 11.22 27.7983 11.1332C28.0081 11.0262 28.2257 10.9352 28.4493 10.861C29.462 10.5251 30.5524 10.502 31.5785 10.7947C31.7347 10.8421 31.8862 10.8918 32.0377 10.951C32.1864 11.0111 32.3317 11.079 32.4732 11.1546C32.547 11.1895 32.6189 11.2282 32.6886 11.2705C32.8286 11.3504 32.9645 11.4373 33.0957 11.5309C33.2317 11.6232 33.3614 11.7245 33.4839 11.834C33.5478 11.8931 33.6117 11.9452 33.6709 12.002C33.7301 12.0588 33.7987 12.1228 33.8579 12.189C34.645 13.0039 35.1438 14.054 35.2781 15.1789C35.2911 15.2659 35.2982 15.3537 35.2994 15.4417C35.3042 15.4889 35.3042 15.5365 35.2994 15.5837L35.2994 15.7186Z" fill="#ACE4D9"/>
<path d="M35.2722 15.1686C35.1378 14.0436 34.639 12.9936 33.852 12.1787C33.7928 12.1124 33.7289 12.0509 33.665 11.9917C33.6011 11.9325 33.5419 11.8828 33.478 11.8236C33.3554 11.7141 33.2257 11.6129 33.0898 11.5206C32.9586 11.427 32.8227 11.3401 32.6827 11.2602C32.6129 11.2178 32.541 11.1791 32.4673 11.1442C32.3258 11.0687 32.1804 11.0007 32.0317 10.9406C31.8802 10.8815 31.7287 10.8317 31.5725 10.7844C30.5465 10.4917 29.456 10.5148 28.4433 10.8507C28.2198 10.9248 28.0022 11.0158 27.7924 11.1229C27.6069 11.2097 27.4295 11.3127 27.2622 11.4307C27.1396 11.5098 27.0211 11.5952 26.9071 11.6863C26.7991 11.7637 26.6977 11.85 26.6041 11.9444C26.5354 11.9973 26.472 12.0568 26.4148 12.1219C26.384 12.1527 26.3556 12.1811 26.3248 12.2166L23.4986 15.2183L21.347 17.5051L19.6474 15.7201L15.5762 11.4591L15.3892 11.2721C13.8364 9.73571 10.7166 9.47529 8.67626 11.1324L7.90225 11.9065C6.40156 13.7814 6.22639 16.6197 7.79573 18.4756L17.0887 27.8264L18.0189 28.7733L19.6474 30.3972L21.2073 31.9573L23.5057 29.6705L28.654 24.5548L29.1558 24.0529L34.0177 19.1906C34.0177 19.1906 34.0366 19.1906 34.0366 19.174L34.0532 19.1574C34.0911 19.1053 34.1336 19.058 34.1739 19.0059C34.2645 18.8982 34.3475 18.7843 34.4224 18.665C34.5147 18.5254 34.6023 18.3786 34.6828 18.2295C34.726 18.1573 34.7655 18.0831 34.8011 18.0069C34.9051 17.7755 34.9959 17.5384 35.0734 17.2968C35.2257 16.7829 35.2999 16.249 35.2935 15.7131L35.2935 15.5805C35.2983 15.5333 35.2983 15.4857 35.2935 15.4385C35.2926 15.3481 35.2855 15.2579 35.2722 15.1686Z" fill="#7869D8"/>
</svg>
