<svg width="84" height="61" viewBox="0 0 84 61" fill="none" xmlns="http://www.w3.org/2000/svg">
  <path d="M73.868 59.7201C74.2871 60.1735 74.9943 60.2013 75.4477 59.7822L82.8361 52.9526C83.2895 52.5335 83.3173 51.8263 82.8982 51.3729C82.4791 50.9195 81.7718 50.8917 81.3184 51.3108L74.751 57.3815L68.6803 50.8141C68.2612 50.3607 67.5539 50.3329 67.1005 50.752C66.6471 51.1711 66.6193 51.8783 67.0384 52.3317L73.868 59.7201ZM1.18757 5.1019C30.2819 0.128416 48.641 4.73735 59.5635 14.8067C70.5008 24.8898 74.2868 40.7256 73.5718 58.9173L75.806 59.0052C76.5317 40.5414 72.722 23.8965 61.079 13.1629C49.421 2.4155 30.2149 -2.12843 0.810826 2.89802L1.18757 5.1019Z" fill="#A8E6D7"/>
</svg>
