<svg width="8" height="9" viewBox="0 0 8 9" fill="none" xmlns="http://www.w3.org/2000/svg">
<path d="M6.66667 4.4401C6.57826 4.4401 6.49348 4.47522 6.43096 4.53774C6.36845 4.60025 6.33333 4.68503 6.33333 4.77344V6.77344C6.33333 6.86184 6.29821 6.94663 6.2357 7.00914C6.17319 7.07165 6.08841 7.10677 6 7.10677H2C1.91159 7.10677 1.82681 7.07165 1.7643 7.00914C1.70179 6.94663 1.66667 6.86184 1.66667 6.77344V2.77344C1.66667 2.68503 1.70179 2.60025 1.7643 2.53774C1.82681 2.47522 1.91159 2.4401 2 2.4401H4C4.08841 2.4401 4.17319 2.40499 4.2357 2.34247C4.29821 2.27996 4.33333 2.19518 4.33333 2.10677C4.33333 2.01837 4.29821 1.93358 4.2357 1.87107C4.17319 1.80856 4.08841 1.77344 4 1.77344H2C1.73478 1.77344 1.48043 1.87879 1.29289 2.06633C1.10536 2.25387 1 2.50822 1 2.77344V6.77344C1 7.03865 1.10536 7.29301 1.29289 7.48054C1.48043 7.66808 1.73478 7.77344 2 7.77344H6C6.26522 7.77344 6.51957 7.66808 6.70711 7.48054C6.89464 7.29301 7 7.03865 7 6.77344V4.77344C7 4.68503 6.96488 4.60025 6.90237 4.53774C6.83986 4.47522 6.75507 4.4401 6.66667 4.4401Z" fill="#C6C6C6"/>
<path d="M5.33266 2.4401H5.85933L3.76266 4.53344C3.73142 4.56442 3.70662 4.60129 3.6897 4.64191C3.67278 4.68253 3.66406 4.7261 3.66406 4.7701C3.66406 4.81411 3.67278 4.85768 3.6897 4.8983C3.70662 4.93892 3.73142 4.97578 3.76266 5.00677C3.79365 5.03801 3.83052 5.06281 3.87114 5.07973C3.91176 5.09666 3.95532 5.10537 3.99933 5.10537C4.04333 5.10537 4.0869 5.09666 4.12752 5.07973C4.16814 5.06281 4.20501 5.03801 4.236 5.00677L6.33266 2.91344V3.4401C6.33266 3.52851 6.36778 3.61329 6.43029 3.67581C6.4928 3.73832 6.57759 3.77344 6.666 3.77344C6.7544 3.77344 6.83919 3.73832 6.9017 3.67581C6.96421 3.61329 6.99933 3.52851 6.99933 3.4401V2.10677C6.99933 2.01837 6.96421 1.93358 6.9017 1.87107C6.83919 1.80856 6.7544 1.77344 6.666 1.77344H5.33266C5.24426 1.77344 5.15947 1.80856 5.09696 1.87107C5.03445 1.93358 4.99933 2.01837 4.99933 2.10677C4.99933 2.19518 5.03445 2.27996 5.09696 2.34247C5.15947 2.40499 5.24426 2.4401 5.33266 2.4401V2.4401Z" fill="#C6C6C6"/>
</svg>
