<svg width="97" height="92" viewBox="0 0 97 92" fill="none" xmlns="http://www.w3.org/2000/svg">
<path d="M63.3982 47.2663C62.5341 40.9069 62.7395 34.4479 64.0058 28.1563C65.7809 19.5291 69.3426 12.7387 72.5902 6.59315C72.7908 6.21285 72.9146 5.79675 72.9544 5.36861C72.9943 4.94048 72.9494 4.50868 72.8224 4.09789C72.6953 3.6871 72.4886 3.30535 72.214 2.97445C71.9395 2.64354 71.6024 2.36995 71.2221 2.16931C70.4541 1.76408 69.5565 1.68057 68.7269 1.93713C68.3161 2.06417 67.9343 2.27087 67.6034 2.54544C67.2725 2.82001 66.9989 3.15707 66.7983 3.53737L66.7527 3.63361C63.5286 9.74456 59.5708 17.2462 57.5946 26.8392C55.6057 36.5456 55.6569 48.2226 60.1591 62.7813C61.2307 66.2433 63.422 69.2512 66.3889 71.3324C69.3557 73.4136 72.9299 74.4502 76.5499 74.2793C80.1699 74.1083 83.6305 72.7396 86.3881 70.3882C89.1457 68.0367 91.0439 64.8357 91.7845 61.2882C92.5251 57.7407 92.0662 54.0476 90.4798 50.7892C88.8934 47.5309 86.2695 44.8919 83.0203 43.2868C79.7711 41.6818 76.0807 41.2018 72.529 41.9221C68.9772 42.6424 65.7655 44.5222 63.3982 47.2663ZM66.4075 60.849C65.6388 58.3633 65.889 55.674 67.1031 53.3727C68.3173 51.0715 70.3958 49.3468 72.8816 48.578C75.3673 47.8093 78.0567 48.0596 80.3579 49.2737C82.6592 50.4878 84.3839 52.5664 85.1526 55.0521C85.9213 57.5379 85.6711 60.2272 84.4569 62.5285C83.2428 64.8297 81.1642 66.5544 78.6785 67.3231C76.1927 68.0918 73.5034 67.8416 71.2021 66.6275C68.9009 65.4134 67.1762 63.3348 66.4075 60.849Z" fill="white"/>
<path d="M19.6639 60.7858C18.7995 54.4265 19.0049 47.9674 20.2715 41.6758C22.0465 33.0487 25.6082 26.2583 28.8558 20.1127C29.0564 19.7324 29.1802 19.3163 29.2201 18.8881C29.2599 18.46 29.215 18.0282 29.088 17.6174C28.9609 17.2066 28.7542 16.8249 28.4797 16.494C28.2051 16.1631 27.868 15.8895 27.4877 15.6888C27.1074 15.4882 26.6913 15.3644 26.2632 15.3246C25.8351 15.2847 25.4033 15.3296 24.9925 15.4567C24.5817 15.5837 24.1999 15.7904 23.869 16.065C23.5381 16.3395 23.2645 16.6766 23.0639 17.0569L23.0121 17.1551C19.7943 23.2641 15.8364 30.7657 13.8603 40.3587C11.8713 50.0652 11.9225 61.7422 16.4248 76.3009C17.4963 79.7628 19.6877 82.7707 22.6545 84.8519C25.6214 86.9331 29.1956 87.9697 32.8155 87.7988C36.4355 87.6279 39.8962 86.2592 42.6537 83.9077C45.4113 81.5562 47.3095 78.3553 48.0501 74.8077C48.7908 71.2602 48.3318 67.5671 46.7455 64.3088C45.1591 61.0504 42.5351 58.4114 39.2859 56.8064C36.0367 55.2014 32.3463 54.7213 28.7946 55.4416C25.2429 56.1619 22.0311 58.0418 19.6639 60.7858ZM29.1472 62.0976C31.633 61.3289 34.3223 61.5791 36.6235 62.7932C38.9248 64.0074 40.6495 66.0859 41.4182 68.5717C42.1869 71.0574 41.9367 73.7467 40.7225 76.048C39.5084 78.3493 37.4298 80.0739 34.9441 80.8427C32.4583 81.6114 29.769 81.3611 27.4678 80.147C25.1665 78.9329 23.4418 76.8543 22.6731 74.3686C21.9044 71.8828 22.1546 69.1935 23.3688 66.8922C24.5829 64.591 26.6615 62.8663 29.1472 62.0976Z" fill="white"/>
</svg>
