<svg width="380" height="75" viewBox="0 0 380 75" fill="none" xmlns="http://www.w3.org/2000/svg">
<g clip-path="url(#clip0_242_2371)">
<path d="M228.506 15.791L218.582 43.0577C218.377 43.6541 218.144 44.2039 217.911 44.7444C217.762 45.0798 217.622 45.4153 217.473 45.7135C217.445 45.7601 217.426 45.816 217.398 45.8626C217.296 46.077 217.184 46.3006 217.063 46.5056C214.538 50.9693 209.766 53.9699 204.296 53.9699H204.184C199.013 53.9233 194.595 51.4818 192.023 47.4002C195.052 46.0024 195.891 45.2289 197.531 43.7845C198.966 45.9465 201.407 47.3909 204.184 47.4189H204.296C204.511 47.4189 204.716 47.4002 204.939 47.3909C206.673 47.307 208.014 46.8131 209.077 45.8626C210.139 45.0892 210.996 44.0641 211.593 42.8713L211.313 42.219C211.313 42.2004 211.332 42.2004 211.332 42.191L206.84 31.5863L203.905 24.6531L200.159 15.791H207.847L212.143 26.9176L214.929 34.1117L216.094 30.5985L220.977 15.791H228.506Z" fill="#E6EEFF"/>
<path d="M97.8233 36.8682H114.923V43.5404H86.2773V38.732L103.415 22.6478H86.2773V15.9756H114.923V21.1848L97.8233 36.8682Z" fill="#E6EEFF"/>
<path d="M121.107 6.25147C121.619 5.24505 122.542 4.45296 123.632 4.11748C126.614 3.20424 129.363 5.53393 129.363 8.32024C129.363 10.6872 127.378 12.6721 124.955 12.6721C121.899 12.6721 119.494 9.41053 121.107 6.25147ZM121.423 43.5451V15.9803H128.534V43.5451H121.423Z" fill="#E6EEFF"/>
<path d="M160.567 19.4427C163.214 22.2477 164.537 25.6676 164.537 29.7492C164.537 33.8215 163.214 37.2974 160.567 40.1117C157.976 42.9166 154.78 44.2958 151.081 44.2958C147.223 44.2958 144.25 42.9726 142.153 40.2701V54.5464H135.043V15.9668H142.153V19.2191C144.25 16.5166 147.223 15.1934 151.081 15.1934C154.78 15.2027 157.976 16.6378 160.567 19.4427ZM149.767 37.5211C151.966 37.5211 153.792 36.8035 155.227 35.3685C156.709 33.8868 157.427 32.0044 157.427 29.7492C157.427 27.4848 156.709 25.6117 155.227 24.1766C153.792 22.695 151.975 21.9774 149.767 21.9774C147.558 21.9774 145.741 22.695 144.306 24.1766C142.871 25.6117 142.153 27.4848 142.153 29.7492C142.153 32.0044 142.871 33.8868 144.306 35.3685C145.741 36.8129 147.558 37.5211 149.767 37.5211Z" fill="#E6EEFF"/>
<path d="M195.087 19.4427C197.733 22.2477 199.056 25.6676 199.056 29.7492C199.056 33.8215 197.733 37.2974 195.087 40.1117C192.496 42.9166 189.3 44.2958 185.6 44.2958C181.742 44.2958 178.769 42.9726 176.673 40.2701V54.5464H169.562V15.9668H176.673V19.2191C178.769 16.5166 181.742 15.1934 185.6 15.1934C189.29 15.2027 192.496 16.6378 195.087 19.4427ZM184.277 37.5211C186.476 37.5211 188.302 36.8035 189.738 35.3685C191.219 33.8868 191.937 32.0044 191.937 29.7492C191.937 27.4848 191.219 25.6117 189.738 24.1766C188.302 22.695 186.485 21.9774 184.277 21.9774C182.068 21.9774 180.251 22.695 178.816 24.1766C177.381 25.6117 176.663 27.4848 176.663 29.7492C176.663 32.0044 177.381 33.8868 178.816 35.3685C180.251 36.8129 182.068 37.5211 184.277 37.5211Z" fill="#E6EEFF"/>
<path d="M233.536 40.1342C230.778 37.3199 229.398 33.9092 229.398 29.7717C229.398 25.6342 230.778 22.2142 233.536 19.4093C236.35 16.595 239.817 15.2158 243.954 15.2158C249.303 15.2158 254.037 17.9742 256.302 22.326L250.179 25.9044C249.08 23.64 246.713 22.2142 243.898 22.2142C239.658 22.2142 236.518 25.3546 236.518 29.7717C236.518 31.9243 237.235 33.7415 238.605 35.1673C239.985 36.5464 241.746 37.264 243.898 37.264C246.769 37.264 249.136 35.8848 250.244 33.6204L256.414 37.1522C253.991 41.5133 249.303 44.3183 243.954 44.3183C239.817 44.3183 236.35 42.9391 233.536 40.1342Z" fill="#C3CFFE"/>
<path d="M267.509 20.7159C268.832 17.1841 272.14 15.4229 275.886 15.4229V23.3624C273.734 23.0922 271.749 23.5302 270.043 24.6857C268.338 25.8412 267.509 27.7143 267.509 30.3608V43.5375H260.398V15.9727H267.509V20.7159Z" fill="#C3CFFE"/>
<path d="M292.099 44.3183C288.017 44.3183 284.541 42.9391 281.736 40.1342C278.922 37.3199 277.543 33.844 277.543 29.7717C277.543 25.6901 278.922 22.2701 281.736 19.4652C284.541 16.6602 288.017 15.2158 292.099 15.2158C296.171 15.2158 299.647 16.6509 302.461 19.4652C305.276 22.2701 306.711 25.6901 306.711 29.7717C306.711 33.844 305.276 37.3199 302.461 40.1342C299.647 42.9391 296.171 44.3183 292.099 44.3183ZM292.099 37.3665C294.252 37.3665 296.003 36.6489 297.448 35.2232C298.883 33.7881 299.6 31.9709 299.6 29.7624C299.6 27.5538 298.883 25.7367 297.448 24.3016C296.013 22.8665 294.252 22.149 292.099 22.149C289.946 22.149 288.185 22.8665 286.75 24.3016C285.371 25.7367 284.663 27.5538 284.663 29.7624C284.663 31.9616 285.38 33.7881 286.75 35.2232C288.185 36.6583 289.946 37.3665 292.099 37.3665Z" fill="#C3CFFE"/>
<path d="M341.647 15.9756H349.195L340.435 43.5404H333.651L328.582 26.8412L323.512 43.5404H316.738L307.969 15.9756H315.526L320.214 32.8984L325.227 15.9756H331.946L336.959 32.9543L341.647 15.9756Z" fill="#C3CFFE"/>
<path d="M372.894 4.97461H380.004V43.5635H372.894V40.3113C370.806 43.0137 367.824 44.337 363.966 44.337C360.276 44.337 357.071 42.9578 354.433 40.1529C351.843 37.3386 350.52 33.8627 350.52 29.7904C350.52 25.7088 351.843 22.2888 354.433 19.4839C357.08 16.679 360.276 15.2346 363.966 15.2346C367.824 15.2346 370.806 16.5578 372.894 19.2603V4.97461ZM365.28 37.5436C367.489 37.5436 369.306 36.8261 370.741 35.391C372.176 33.9093 372.894 32.0269 372.894 29.7718C372.894 27.5073 372.176 25.6343 370.741 24.1992C369.306 22.7175 367.489 22 365.28 22C363.081 22 361.255 22.7175 359.773 24.1992C358.338 25.6343 357.62 27.5073 357.62 29.7718C357.62 32.0269 358.338 33.9093 359.773 35.391C361.264 36.8354 363.081 37.5436 365.28 37.5436Z" fill="#C3CFFE"/>
<path d="M64.2358 33.9431C67.4414 30.7374 67.4414 25.5096 64.2358 22.3039C61.0022 19.0703 55.8303 19.0703 52.6432 22.2573L49.5494 25.3512C49.0089 25.8917 48.133 25.8917 47.5925 25.3512L44.1445 21.9032C42.7467 20.5054 40.9109 19.5642 38.9447 19.4431C36.6802 19.3033 34.5276 20.1233 32.9341 21.7075C31.3406 23.301 30.5205 25.4537 30.6696 27.7181C30.7908 29.6937 31.732 31.5202 33.1298 32.918L41.0134 40.8017L49.1953 48.9835L64.2358 33.9431Z" fill="#8EDACB"/>
<path d="M50.1431 11.9036H47.1797C46.4435 11.9036 45.8378 11.3072 45.8378 10.5617V8.58613C45.8378 7.22559 44.7382 6.12598 43.3777 6.12598H8.09687C6.73633 6.12598 5.63672 7.22559 5.63672 8.58613V29.9633C5.63672 40.9129 14.9927 49.7191 26.1287 48.8059C27.8247 48.6661 29.2038 49.8682 29.2038 51.5642V68.9809L49.2019 48.9922L44.5239 44.3142C45.0457 44.8361 45.0457 45.6841 44.5239 46.2059L42.4271 48.3026C41.9053 48.8245 41.0573 48.8245 40.5354 48.3026L28.9522 36.7288C25.4297 33.2063 24.1065 28.0716 25.6627 22.9929C25.8491 22.3872 26.0914 21.8001 26.3803 21.2503C28.859 16.5164 33.4439 13.8046 38.448 13.8046C42.0358 13.8046 45.0178 14.8111 48.5775 18.3708L48.6614 18.2869C49.5187 17.4296 50.4692 16.7214 51.4757 16.1343V10.571C51.485 11.3072 50.8886 11.9036 50.1431 11.9036Z" fill="url(#paint0_linear_242_2371)"/>
<path d="M49.203 48.9914L29.205 68.9894V51.5727C29.205 49.8674 27.8258 48.6746 26.1298 48.8143C14.9939 49.7276 5.63784 40.9214 5.63784 29.9718V8.5853C5.63784 7.22476 6.73746 6.12515 8.09799 6.12515H43.3788C44.7393 6.12515 45.8389 7.22476 45.8389 8.5853V10.5609C45.8389 11.2971 46.4353 11.9028 47.1808 11.9028H50.1442C50.8804 11.9028 51.4861 11.3064 51.4861 10.5609V8.93009V8.5853C51.4861 4.1123 47.8611 0.487305 43.3881 0.487305H8.09799C3.62499 0.487305 0 4.1123 0 8.5853V29.9625C0 43.1765 10.4836 53.9769 23.5671 54.4988V69.4461C23.5671 71.2539 24.3685 73.0151 25.8595 74.0495C28.9813 76.0437 31.7024 74.4782 32.7368 73.4438L68.2412 37.9394C73.6461 32.5345 73.6461 23.7376 68.1946 18.2768C63.675 13.7572 56.7791 13.049 51.4954 16.1242C50.489 16.7113 49.5385 17.4102 48.6812 18.2768L48.5973 18.3607C45.0375 14.8009 42.0555 13.7945 38.4678 13.7945C33.4636 13.7945 28.8788 16.5062 26.4 21.2402C26.1111 21.7993 25.8689 22.3864 25.6825 22.9828C24.1262 28.0615 25.4495 33.1961 28.972 36.7186L40.5366 48.3018C41.0584 48.8237 41.9064 48.8237 42.4283 48.3018L44.525 46.2051C45.0468 45.6832 45.0468 44.8352 44.525 44.3134L33.1375 32.9352C31.7397 31.5374 30.7985 29.7016 30.6773 27.7353C30.5375 25.4709 31.3576 23.3089 32.9418 21.7247C34.5353 20.1312 36.6879 19.3205 38.9524 19.4603C40.928 19.5814 42.7637 20.5226 44.1522 21.9204L47.6002 25.3684C48.1407 25.9089 49.0166 25.9089 49.5571 25.3684L52.6509 22.2745C55.8286 19.0968 61.0099 19.0968 64.2435 22.3211C67.4491 25.5268 67.4491 30.7546 64.2435 33.9603L49.203 48.9914Z" fill="#180A33"/>
</g>
<defs>
<linearGradient id="paint0_linear_242_2371" x1="28.5562" y1="6.12598" x2="28.5562" y2="68.9809" gradientUnits="userSpaceOnUse">
<stop stop-color="#8884FB"/>
<stop offset="1" stop-color="#7C6BF7"/>
</linearGradient>
<clipPath id="clip0_242_2371">
<rect width="380" height="74.5127" fill="white" transform="translate(0 0.487305)"/>
</clipPath>
</defs>
</svg>
