<svg width="326" height="143" viewBox="0 0 326 143" fill="none" xmlns="http://www.w3.org/2000/svg">
<path d="M157.689 100.037L146.687 130.263C146.46 130.924 146.202 131.534 145.943 132.133C145.778 132.505 145.623 132.876 145.458 133.207C145.427 133.259 145.406 133.321 145.375 133.372C145.262 133.61 145.138 133.858 145.003 134.085C142.204 139.033 136.915 142.36 130.851 142.36H130.727C124.994 142.308 120.097 139.601 117.246 135.077C120.603 133.527 121.533 132.67 123.351 131.069C124.942 133.465 127.649 135.066 130.727 135.097H130.851C131.089 135.097 131.316 135.077 131.564 135.066C133.485 134.973 134.973 134.426 136.15 133.372C137.328 132.515 138.278 131.379 138.94 130.056L138.63 129.333C138.63 129.313 138.65 129.313 138.65 129.302L133.671 117.546L130.417 109.861L126.264 100.037H134.787L139.549 112.371L142.638 120.346L143.929 116.451L149.342 100.037H157.689Z" fill="#363062"/>
<path d="M12.7992 123.395H31.7551V130.792H0V125.461L18.9973 107.631H0V100.235H31.7551V106.009L12.7992 123.395Z" fill="#363062"/>
<path d="M38.6079 89.4469C39.1761 88.3312 40.1988 87.4531 41.4074 87.0812C44.7131 86.0689 47.7605 88.6514 47.7605 91.7402C47.7605 94.3641 45.5602 96.5644 42.8743 96.5644C39.486 96.5644 36.8208 92.9488 38.6079 89.4469ZM38.9591 130.788V100.232H46.8411V130.788H38.9591Z" fill="#363062"/>
<path d="M82.3414 104.086C85.2752 107.195 86.7421 110.987 86.7421 115.511C86.7421 120.026 85.2752 123.879 82.3414 126.999C79.4696 130.108 75.9263 131.637 71.8252 131.637C67.5485 131.637 64.2532 130.17 61.9288 127.174V143H54.0469V100.233H61.9288V103.838C64.2532 100.842 67.5485 99.3755 71.8252 99.3755C75.9263 99.3858 79.4696 100.977 82.3414 104.086ZM70.3686 124.127C72.8066 124.127 74.8313 123.331 76.4222 121.74C78.0647 120.098 78.8601 118.011 78.8601 115.511C78.8601 113.001 78.0647 110.925 76.4222 109.334C74.8313 107.691 72.8169 106.896 70.3686 106.896C67.9204 106.896 65.906 107.691 64.3151 109.334C62.7243 110.925 61.9288 113.001 61.9288 115.511C61.9288 118.011 62.7243 120.098 64.3151 121.74C65.906 123.342 67.9204 124.127 70.3686 124.127Z" fill="#363062"/>
<path d="M120.63 104.086C123.564 107.195 125.031 110.987 125.031 115.511C125.031 120.026 123.564 123.879 120.63 126.999C117.759 130.108 114.215 131.637 110.114 131.637C105.838 131.637 102.542 130.17 100.218 127.174V143H92.3359V100.233H100.218V103.838C102.542 100.842 105.838 99.3755 110.114 99.3755C114.205 99.3858 117.759 100.977 120.63 104.086ZM108.647 124.127C111.085 124.127 113.11 123.331 114.701 121.74C116.343 120.098 117.139 118.011 117.139 115.511C117.139 113.001 116.343 110.925 114.701 109.334C113.11 107.691 111.096 106.896 108.647 106.896C106.199 106.896 104.185 107.691 102.594 109.334C101.003 110.925 100.208 113.001 100.208 115.511C100.208 118.011 101.003 120.098 102.594 121.74C104.185 123.342 106.199 124.127 108.647 124.127Z" fill="#363062"/>
<path d="M163.255 127.011C160.197 123.891 158.668 120.11 158.668 115.524C158.668 110.937 160.197 107.146 163.255 104.036C166.374 100.917 170.217 99.3877 174.804 99.3877C180.733 99.3877 185.981 102.445 188.491 107.27L181.704 111.236C180.485 108.726 177.862 107.146 174.742 107.146C170.042 107.146 166.56 110.627 166.56 115.524C166.56 117.91 167.356 119.924 168.874 121.505C170.403 123.034 172.356 123.829 174.742 123.829C177.924 123.829 180.547 122.3 181.777 119.79L188.615 123.705C185.929 128.54 180.733 131.649 174.804 131.649C170.217 131.649 166.374 130.12 163.255 127.011Z" fill="#7869D8"/>
<path d="M200.902 105.493C202.368 101.578 206.036 99.6255 210.188 99.6255V108.427C207.802 108.127 205.602 108.613 203.711 109.894C201.821 111.175 200.902 113.251 200.902 116.185V130.792H193.02V100.235H200.902V105.493Z" fill="#7869D8"/>
<path d="M228.163 131.649C223.639 131.649 219.785 130.12 216.676 127.011C213.556 123.891 212.027 120.038 212.027 115.524C212.027 110.999 213.556 107.208 216.676 104.098C219.785 100.989 223.639 99.3877 228.163 99.3877C232.678 99.3877 236.531 100.979 239.65 104.098C242.77 107.208 244.361 110.999 244.361 115.524C244.361 120.038 242.77 123.891 239.65 127.011C236.531 130.12 232.678 131.649 228.163 131.649ZM228.163 123.943C230.549 123.943 232.492 123.147 234.093 121.567C235.684 119.976 236.479 117.961 236.479 115.513C236.479 113.065 235.684 111.051 234.093 109.46C232.502 107.869 230.549 107.073 228.163 107.073C225.777 107.073 223.824 107.869 222.234 109.46C220.705 111.051 219.92 113.065 219.92 115.513C219.92 117.951 220.715 119.976 222.234 121.567C223.824 123.158 225.777 123.943 228.163 123.943Z" fill="#7869D8"/>
<path d="M283.111 100.235H291.478L281.768 130.792H274.247L268.628 112.28L263.008 130.792H255.498L245.777 100.235H254.155L259.351 118.995L264.909 100.235H272.357L277.915 119.057L283.111 100.235Z" fill="#7869D8"/>
<path d="M317.729 88.0244H325.611V130.802H317.729V127.197C315.415 130.192 312.109 131.659 307.832 131.659C303.742 131.659 300.188 130.13 297.264 127.021C294.393 123.901 292.926 120.048 292.926 115.534C292.926 111.009 294.393 107.218 297.264 104.109C300.198 100.999 303.742 99.398 307.832 99.398C312.109 99.398 315.415 100.865 317.729 103.861V88.0244ZM309.289 124.129C311.737 124.129 313.752 123.333 315.342 121.742C316.933 120.1 317.729 118.013 317.729 115.513C317.729 113.003 316.933 110.927 315.342 109.336C313.752 107.693 311.737 106.898 309.289 106.898C306.851 106.898 304.826 107.693 303.184 109.336C301.593 110.927 300.797 113.003 300.797 115.513C300.797 118.013 301.593 120.1 303.184 121.742C304.837 123.343 306.851 124.129 309.289 124.129Z" fill="#7869D8"/>
<path d="M189.408 37.086C192.962 33.5324 192.962 27.7371 189.408 24.1835C185.824 20.5989 180.09 20.5989 176.558 24.1319L173.128 27.5615C172.529 28.1606 171.558 28.1606 170.959 27.5615L167.136 23.7393C165.587 22.1898 163.552 21.1464 161.372 21.0121C158.862 20.8572 156.476 21.7662 154.709 23.5224C152.943 25.2888 152.034 27.6751 152.199 30.1854C152.333 32.3754 153.377 34.4001 154.926 35.9496L163.665 44.689L172.735 53.759L189.408 37.086Z" fill="#CFF4EC"/>
<path d="M173.771 12.6547H170.486C169.67 12.6547 168.998 11.9936 168.998 11.1672V8.97718C168.998 7.46897 167.779 6.25 166.271 6.25H127.161C125.653 6.25 124.434 7.46897 124.434 8.97718V32.6747C124.434 44.8128 134.805 54.5748 147.15 53.5625C149.03 53.4075 150.559 54.7401 150.559 56.6202V75.9274L172.727 53.7691L167.542 48.5833C168.12 49.1618 168.12 50.1018 167.542 50.6803L165.217 53.0046C164.639 53.5831 163.699 53.5831 163.12 53.0046L150.28 40.1745C146.375 36.2697 144.908 30.5777 146.633 24.9477C146.84 24.2763 147.108 23.6255 147.429 23.016C150.177 17.7682 155.259 14.7621 160.806 14.7621C164.783 14.7621 168.089 15.8778 172.035 19.8239L172.128 19.731C173.079 18.7806 174.132 17.9955 175.248 17.3447V11.1775C175.258 11.9936 174.597 12.6547 173.771 12.6547Z" fill="#7869D8"/>
<path d="M172.727 53.7689L150.559 75.9376V56.6303C150.559 54.7399 149.03 53.4176 147.15 53.5726C134.805 54.585 124.433 44.8229 124.433 32.6849V8.97697C124.433 7.46876 125.652 6.24979 127.161 6.24979H166.271C167.779 6.24979 168.998 7.46876 168.998 8.97697V11.167C168.998 11.9831 169.659 12.6545 170.486 12.6545H173.771C174.587 12.6545 175.258 11.9934 175.258 11.167V9.35919V8.97697C175.258 4.01846 171.24 0 166.281 0H127.161C122.202 0 118.184 4.01846 118.184 8.97697V32.6745C118.184 47.3228 129.805 59.2955 144.309 59.874V76.4437C144.309 78.4478 145.197 80.4002 146.85 81.5469C150.311 83.7575 153.327 82.0221 154.474 80.8754L193.832 41.5172C199.823 35.5257 199.823 25.7739 193.78 19.7204C188.77 14.7103 181.126 13.9252 175.268 17.3341C174.153 17.9849 173.099 18.7597 172.149 19.7204L172.056 19.8134C168.11 15.8672 164.804 14.7516 160.827 14.7516C155.279 14.7516 150.197 17.7577 147.449 23.0054C147.129 23.6252 146.86 24.2761 146.654 24.9372C144.929 30.5672 146.395 36.2591 150.3 40.164L163.12 53.0044C163.699 53.5829 164.639 53.5829 165.217 53.0044L167.541 50.6801C168.12 50.1016 168.12 49.1616 167.541 48.5831L154.918 35.9699C153.368 34.4203 152.325 32.3853 152.191 30.2056C152.036 27.6954 152.945 25.2987 154.701 23.5426C156.467 21.7761 158.854 20.8774 161.364 21.0324C163.554 21.1667 165.589 22.21 167.128 23.7595L170.95 27.5817C171.55 28.1809 172.521 28.1809 173.12 27.5817L176.549 24.1521C180.072 20.6295 185.816 20.6295 189.4 24.2037C192.954 27.7573 192.954 33.5526 189.4 37.1062L172.727 53.7689Z" fill="#363062"/>
</svg>
