<svg width="29" height="29" viewBox="0 0 29 29" fill="none" xmlns="http://www.w3.org/2000/svg">
<path d="M10.5137 8.10889L15.5644 13.1595L20.615 18.2102L11.9637 21.8108L3.3125 25.4114L6.91308 16.7602L10.5137 8.10889Z" fill="#CFF4EC"/>
<path d="M16.0677 14.0638L10.3185 8.3053L6.58111 17.0934L2.84375 25.8814L16.0677 14.0638Z" fill="#CFF4EC"/>
<path d="M6.11375 18.1965L10.5588 22.6416L8.33626 23.5463L5.20312 20.4131L6.11375 18.1965Z" fill="#7869D8"/>
<path d="M6.96094 22.1998L8.33194 23.5463L10.5544 22.6415L8.62531 20.7124L6.96094 22.1998Z" fill="#7869D8"/>
<path d="M8.35556 12.9233L11.0464 15.6142L15.7475 20.3153L13.2268 21.4659L9.94318 18.1822L7.28906 15.5281L8.35556 12.9233Z" fill="#7869D8"/>
<path d="M10.6562 18.8978L13.2241 21.4656L15.7448 20.315L12.595 17.1653L10.6562 18.8978Z" fill="#7869D8"/>
<path d="M12.1708 6.60142C12.6147 6.60142 12.9745 6.24687 12.9745 5.8095C12.9745 5.37213 12.6147 5.01758 12.1708 5.01758C11.727 5.01758 11.3672 5.37213 11.3672 5.8095C11.3672 6.24687 11.727 6.60142 12.1708 6.60142Z" fill="#8967AA"/>
<path d="M24.2216 8.20933C24.6655 8.20933 25.0253 7.85478 25.0253 7.41741C25.0253 6.98004 24.6655 6.62549 24.2216 6.62549C23.7778 6.62549 23.418 6.98004 23.418 7.41741C23.418 7.85478 23.7778 8.20933 24.2216 8.20933Z" fill="#F1B31C"/>
<path d="M23.0185 16.6468C23.4623 16.6468 23.8222 16.2923 23.8222 15.8549C23.8222 15.4175 23.4623 15.063 23.0185 15.063C22.5747 15.063 22.2148 15.4175 22.2148 15.8549C22.2148 16.2923 22.5747 16.6468 23.0185 16.6468Z" fill="#67BCAA"/>
<path d="M20.3523 18.3393L20.4199 18.4069L11.6318 22.1443L2.84375 25.8817L6.58116 17.0936L10.3185 8.30554" stroke="#7643A7" stroke-width="0.803657" stroke-miterlimit="10" stroke-linecap="round" stroke-linejoin="round"/>
<path d="M10.3672 8.34912L15.3742 13.3561L20.3573 18.3392" stroke="#7643A7" stroke-width="0.803657" stroke-miterlimit="10" stroke-linecap="round" stroke-linejoin="round"/>
<path d="M10.3203 8.30542L10.364 8.3491" stroke="#7643A7" stroke-width="0.803657" stroke-miterlimit="10" stroke-linecap="round" stroke-linejoin="round"/>
<path d="M18.6785 2.96045C18.7728 3.14075 18.8403 3.33937 18.8753 3.55234C19.0565 4.65629 18.2939 5.72788 17.1719 5.94583" stroke="#F697A8" stroke-width="0.803657" stroke-miterlimit="10" stroke-linecap="round" stroke-linejoin="round"/>
<path d="M17.2447 5.93726C17.0418 5.95269 16.8375 6.00046 16.6383 6.08352C15.6057 6.514 15.1001 7.7282 15.509 8.79554" stroke="#F697A8" stroke-width="0.803657" stroke-miterlimit="10" stroke-linecap="round" stroke-linejoin="round"/>
<path d="M24.8272 10.7354C24.7876 10.9349 24.7156 11.132 24.6092 11.3198C24.0579 12.2932 22.7918 12.6494 21.7812 12.1154" stroke="#F697A8" stroke-width="0.803657" stroke-miterlimit="10" stroke-linecap="round" stroke-linejoin="round"/>
<path d="M21.84 12.1581C21.6723 12.0428 21.4832 11.952 21.276 11.8917C20.2018 11.5793 19.0464 12.2078 18.6953 13.2955" stroke="#F697A8" stroke-width="0.803657" stroke-miterlimit="10" stroke-linecap="round" stroke-linejoin="round"/>
</svg>
