<svg width="315" height="692" viewBox="0 0 315 692" fill="none" xmlns="http://www.w3.org/2000/svg">
<path opacity="0.2" fill-rule="evenodd" clip-rule="evenodd" d="M0 61.782C0 61.782 417.886 -77.2274 291.023 61.782C215.546 144.487 242.882 151.893 271.459 159.636C290.914 164.907 310.944 170.334 299.5 199.782C285.72 235.238 255.207 256.285 227.461 273.697C251.057 257.753 274.922 238.053 286.48 207.445C297.427 178.456 278.268 173.114 259.659 167.925C232.324 160.302 206.176 153.011 278.373 71.5935C399.719 -65.2524 0.00234985 71.5935 0.00234985 71.5935V583.688C0.000784134 583.398 0 583.107 0 582.815V61.782ZM113.928 691.983C185.396 692.982 268.187 650.542 291.023 582.815C313.885 515.013 257.631 447.801 214.821 396.653C191.088 368.296 171.486 344.876 171.789 329.03C172.039 315.907 180.819 305.603 193.795 295.724C176.9 307.431 164.613 319.016 164.322 334.682C164.032 350.282 182.782 373.337 205.484 401.252C246.432 451.605 300.24 517.77 278.373 584.517C257.055 649.586 181.114 690.945 113.928 691.983Z" fill="#D4DFFF"/>
</svg>
