<svg width="735" height="686" viewBox="0 0 735 686" fill="none" xmlns="http://www.w3.org/2000/svg">
<path opacity="0.2" fill-rule="evenodd" clip-rule="evenodd" d="M0 61.2463C0 61.2463 975.067 -76.5578 679.055 61.2463C502.939 143.234 566.725 150.576 633.405 158.252C678.8 163.477 725.536 168.857 698.833 198.049C666.675 233.204 595.461 254.069 530.713 271.332C585.779 255.524 641.479 235.994 668.452 205.647C693.995 176.909 649.29 171.613 605.869 166.469C542.088 158.913 481.076 151.684 649.534 70.9727C932.676 -64.6866 0.00345499 70.9727 0.00345499 70.9727V578.449C0.00115266 578.22 0 577.991 0 577.762V61.2463ZM265.829 685.983C432.587 686.974 625.77 644.902 679.055 577.762C732.398 510.547 601.139 443.919 501.25 393.214C445.871 365.103 400.134 341.886 400.84 326.177C401.425 313.165 421.92 302.949 452.21 293.153C412.777 304.761 384.095 316.247 383.416 331.78C382.74 347.245 426.489 370.1 479.46 397.773C575.006 447.689 700.558 513.281 649.534 579.449C599.792 643.954 422.597 684.954 265.829 685.983Z" fill="#D4DFFF"/>
</svg>
