<svg width="757" height="1504" viewBox="0 0 757 1504" fill="none" xmlns="http://www.w3.org/2000/svg">
<path opacity="0.2" fill-rule="evenodd" clip-rule="evenodd" d="M653.02 1432.31C676.928 1417.27 691.01 1404.37 690.58 1394.98C690.577 1394.92 690.574 1394.86 690.57 1394.8C690.568 1394.78 690.567 1394.76 690.565 1394.74C690.635 1404.12 676.584 1417.12 653.02 1432.31ZM423.373 1361C256.598 1363.47 63.988 1381.75 11.7906 1406.56C-40.4347 1431.39 91.8601 1452.86 192.538 1469.2L192.538 1469.2L192.539 1469.2C248.354 1478.26 294.452 1485.75 294.003 1491.35C293.63 1496 273.224 1499.99 243.002 1504C282.332 1499.19 310.91 1494.61 311.336 1489.06C311.759 1483.54 267.654 1476.16 214.252 1467.21L214.252 1467.21C117.928 1451.08 -8.64496 1429.88 41.279 1405.46C89.9771 1381.64 266.614 1364.02 423.373 1361Z" fill="#D4DFFF"/>
<path opacity="0.2" fill-rule="evenodd" clip-rule="evenodd" d="M360.233 1046.47C209.954 928.896 370.557 887.073 416.043 878.012C415.598 877.342 415.37 877 415.37 877C415.37 877 160.885 898.945 342.158 1036.75C450.008 1118.74 410.947 1126.08 370.114 1133.75C342.314 1138.98 313.694 1144.36 330.046 1173.55C349.745 1208.72 393.374 1229.58 433.033 1246.85C399.3 1231.04 365.172 1211.5 348.648 1181.15C333.006 1152.41 360.383 1147.11 386.973 1141.97C426.031 1134.41 463.394 1127.18 360.233 1046.47Z" fill="#D4DFFF"/>
<path opacity="0.2" fill-rule="evenodd" clip-rule="evenodd" d="M758 61.2463C758 61.2463 -217.067 -76.5578 78.9453 61.2463C255.061 143.234 191.275 150.576 124.595 158.252C79.2002 163.477 32.4636 168.857 59.167 198.049C91.3246 233.204 162.539 254.069 227.287 271.332C172.221 255.524 116.521 235.994 89.5476 205.647C64.0052 176.909 108.71 171.613 152.131 166.469C215.912 158.913 276.924 151.684 108.466 70.9727C-174.676 -64.6866 757.997 70.9727 757.997 70.9727V578.449C757.999 578.22 758 577.991 758 577.762V61.2463ZM492.171 685.983C325.413 686.974 132.23 644.902 78.9453 577.762C25.6019 510.547 156.861 443.919 256.75 393.214C312.129 365.103 357.866 341.886 357.16 326.177C356.575 313.165 336.08 302.949 305.79 293.153C345.223 304.761 373.905 316.247 374.584 331.78C375.26 347.245 331.511 370.1 278.54 397.773C182.994 447.689 57.4419 513.281 108.466 579.449C158.208 643.954 335.403 684.954 492.171 685.983Z" fill="#D4DFFF"/>
</svg>
