<svg width="372" height="857" viewBox="0 0 372 857" fill="none" xmlns="http://www.w3.org/2000/svg">
<path opacity="0.2" fill-rule="evenodd" clip-rule="evenodd" d="M133.868 14.0818C302.469 -9.47626 447.719 -12.3146 328.232 76.5132C190.454 178.938 240.354 188.111 292.519 197.7C328.032 204.228 364.595 210.948 343.704 247.417C316.449 294.997 253.332 321.624 199.637 344.276C151.723 364.489 111.311 381.537 110.581 407.484C110.028 427.108 145.809 456.112 189.133 491.23C267.277 554.575 369.963 637.812 328.232 721.781C286.061 806.633 131.885 859.436 0.414062 856.913C125.113 854.552 264.552 803.589 304.009 723.914C344.937 641.27 244.229 559.347 167.589 497.002C125.1 462.439 90.0078 433.892 90.5498 414.577C91.2663 389.041 130.899 372.262 177.891 352.367C230.552 330.073 292.454 303.866 319.184 257.037C339.672 221.144 303.813 214.529 268.984 208.104C217.824 198.667 168.885 189.639 304.009 88.8305C416.507 4.90227 290.103 -1.16739 133.868 14.0818Z" fill="#D4DFFF"/>
</svg>
