<svg width="696" height="664" viewBox="0 0 696 664" fill="none" xmlns="http://www.w3.org/2000/svg">
<path opacity="0.2" fill-rule="evenodd" clip-rule="evenodd" d="M0 59.2821C0 59.2821 923.329 -74.1026 643.023 59.2821C476.253 138.641 536.654 145.747 599.796 153.177C642.782 158.235 687.039 163.442 661.752 191.698C631.291 225.736 563.822 245.934 502.493 262.647C554.657 247.343 607.432 228.436 632.983 199.05C657.17 171.234 614.838 166.108 573.721 161.129C513.324 153.815 455.549 146.819 615.069 68.6954C883.187 -62.6134 0.00300998 68.6954 0.00300998 68.6954V559.871C0.00100415 559.659 0 559.446 0 559.233V59.2821ZM251.628 663.983C409.56 664.959 592.556 624.233 643.023 559.233C693.536 494.174 569.242 429.682 474.653 380.603C422.213 353.394 378.902 330.922 379.571 315.717C380.126 303.115 399.552 293.223 428.257 283.738C390.894 294.977 363.714 306.098 363.071 321.139C362.431 336.107 403.859 358.23 454.019 385.016C544.496 433.331 663.385 496.818 615.069 560.865C567.956 623.315 400.101 663.004 251.628 663.983Z" fill="url(#paint0_linear_141_2897)"/>
<defs>
<linearGradient id="paint0_linear_141_2897" x1="222" y1="24.1982" x2="340.31" y2="665.419" gradientUnits="userSpaceOnUse">
<stop stop-color="#D4DFFF" stop-opacity="0.07"/>
<stop offset="0.541667" stop-color="#D4DFFF"/>
<stop offset="1" stop-color="#D4DFFF" stop-opacity="0"/>
</linearGradient>
</defs>
</svg>
