<svg width="733" height="829" viewBox="0 0 733 829" fill="none" xmlns="http://www.w3.org/2000/svg">
<path opacity="0.2" fill-rule="evenodd" clip-rule="evenodd" d="M0 74.0134C0 74.0134 972.414 -92.5167 677.207 74.0134C501.571 173.092 565.183 181.965 631.681 191.24C676.953 197.555 723.562 204.056 696.931 239.334C664.864 281.813 593.853 307.027 529.285 327.887C584.196 308.785 639.737 285.185 666.634 248.515C692.107 213.786 647.524 207.386 604.221 201.17C540.614 192.039 479.768 183.304 647.768 85.7673C930.139 -78.1708 0.00439453 85.7673 0.00439453 85.7673V699.137C0.00146627 698.825 0 698.512 0 698.199V74.0134ZM265.109 828.979C431.413 830.176 624.068 779.334 677.207 698.199C730.405 616.973 599.504 536.456 499.886 475.181C444.658 441.21 399.045 413.154 399.75 394.17C400.333 378.447 420.767 366.102 450.969 354.267C411.649 368.292 383.05 382.172 382.374 400.941C381.7 419.629 425.329 447.249 478.156 480.691C573.443 541.012 698.653 620.276 647.768 700.238C598.162 778.189 421.45 827.736 265.109 828.979Z" fill="#D4DFFF"/>
</svg>
