<svg width="344" height="750" viewBox="0 0 344 750" fill="none" xmlns="http://www.w3.org/2000/svg">
<path opacity="0.2" fill-rule="evenodd" clip-rule="evenodd" d="M0 66.9602C0 66.9602 456.358 -83.7003 317.816 66.9602C235.389 156.597 265.243 164.624 296.451 173.016C317.697 178.729 339.571 184.611 327.073 216.526C312.022 254.962 278.69 277.774 248.385 296.648C274.158 279.365 300.229 258.012 312.854 224.832C324.808 193.413 303.885 187.623 283.563 181.999C253.712 173.738 225.156 165.836 303.999 77.5939C436.518 -70.7216 0.00146484 77.5939 0.00146484 77.5939V632.379C0.000488681 632.141 0 631.902 0 631.663V66.9602ZM124.413 749.981C202.461 751.066 292.877 705.068 317.816 631.663C342.782 558.178 281.35 485.334 234.599 429.898C208.68 399.165 187.274 373.782 187.604 356.608C187.878 342.38 197.471 331.21 211.649 320.501C193.192 333.192 179.767 345.75 179.449 362.733C179.133 379.64 199.608 404.628 224.4 434.883C269.118 489.456 327.88 561.167 303.999 633.508C280.719 704.032 197.785 748.858 124.413 749.981Z" fill="#D4DFFF"/>
</svg>
