<svg width="344" height="681" viewBox="0 0 344 681" fill="none" xmlns="http://www.w3.org/2000/svg">
<path opacity="0.2" fill-rule="evenodd" clip-rule="evenodd" d="M123.526 11.1914C279.62 -7.53003 414.099 -9.78747 303.477 60.7999C175.925 142.19 222.122 149.479 270.415 157.099C303.292 162.286 337.141 167.627 317.801 196.606C292.569 234.414 234.136 255.573 184.426 273.573C140.068 289.635 102.656 303.182 101.98 323.8C101.468 339.394 134.593 362.442 174.701 390.348C247.047 440.683 342.111 506.826 303.477 573.55C264.438 640.974 121.714 682.932 0.00390625 680.931C115.444 679.052 244.526 638.555 281.053 575.246C318.943 509.575 225.709 444.476 154.757 394.935C115.421 367.469 82.934 344.785 83.4357 329.437C84.099 309.145 120.791 295.812 164.295 280.003C213.047 262.287 270.355 241.462 295.101 204.251C314.069 175.729 280.872 170.472 248.627 165.367C201.264 157.867 155.957 150.694 281.053 70.588C385.204 3.89387 268.172 -0.927535 123.526 11.1914Z" fill="#D4DFFF"/>
</svg>
