<svg width="575" height="703" viewBox="0 0 575 703" fill="none" xmlns="http://www.w3.org/2000/svg">
  <path opacity="0.2" fill-rule="evenodd" clip-rule="evenodd" d="M0 62.764C0 62.764 762.808 -78.455 531.233 62.764C393.456 146.784 443.356 154.308 495.521 162.174C531.034 167.529 567.596 173.042 546.706 202.957C521.526 239.016 465.736 260.404 415.046 278.104C458.169 261.896 501.813 241.872 522.936 210.74C542.918 181.29 507.945 175.863 473.976 170.591C424.08 162.848 376.349 155.441 508.136 72.7288C729.642 -66.2923 0 72.7288 0 72.7288V62.764ZM207.796 702.981C338.291 704.035 489.53 660.913 531.233 592.079C572.964 523.199 470.279 454.92 392.134 402.958C348.811 374.15 313.03 350.358 313.583 334.26C314.041 320.907 330.118 310.427 353.867 300.376C322.967 312.285 300.48 324.064 299.949 339.999C299.42 355.847 333.645 379.269 375.085 407.628C449.832 458.781 548.053 525.998 508.136 593.806C469.205 659.939 330.477 701.963 207.796 702.981Z" fill="#D4DFFF"/>
  <path d="M400.777 270.078C398.525 270.078 396.324 270.745 394.451 271.997C392.579 273.248 391.119 275.026 390.258 277.106C389.396 279.187 389.17 281.477 389.609 283.685C390.049 285.894 391.133 287.923 392.725 289.516C394.318 291.108 396.346 292.193 398.555 292.632C400.763 293.071 403.053 292.846 405.133 291.984C407.214 291.122 408.992 289.662 410.243 287.789C411.493 285.917 412.161 283.715 412.161 281.463C412.16 278.444 410.961 275.548 408.826 273.413C406.691 271.278 403.796 270.078 400.777 270.078ZM408.53 278.601C408.533 278.891 408.493 279.181 408.411 279.459C408.369 279.59 408.319 279.719 408.263 279.845C408.244 279.886 408.222 279.926 408.199 279.965C408.155 280.046 408.108 280.126 408.058 280.201C408.017 280.266 407.972 280.328 407.923 280.386C407.901 280.414 407.878 280.44 407.858 280.468L407.849 280.477C407.849 280.477 407.849 280.477 407.838 280.486L405.202 283.123L404.93 283.395L402.139 286.168L400.892 287.408L400.047 286.563L399.164 285.682L398.659 285.169L393.621 280.101C392.77 279.095 392.865 277.556 393.678 276.539L394.098 276.12C395.204 275.221 396.896 275.362 397.738 276.195L397.839 276.297L400.047 278.607L400.968 279.575L402.135 278.335L403.667 276.708C403.684 276.688 403.699 276.673 403.716 276.656C403.747 276.621 403.781 276.589 403.819 276.56C403.869 276.509 403.924 276.462 403.983 276.42C404.045 276.371 404.109 276.324 404.175 276.281C404.266 276.217 404.362 276.162 404.463 276.115C404.577 276.057 404.695 276.007 404.816 275.967C405.365 275.785 405.956 275.772 406.512 275.931C406.597 275.957 406.679 275.984 406.761 276.016C406.842 276.048 406.921 276.085 406.998 276.126C407.038 276.145 407.077 276.166 407.114 276.189C407.19 276.232 407.264 276.279 407.335 276.33C407.409 276.38 407.479 276.435 407.546 276.495C407.58 276.527 407.615 276.555 407.647 276.586C407.679 276.616 407.716 276.651 407.748 276.687C408.175 277.129 408.446 277.698 408.518 278.308C408.525 278.355 408.529 278.403 408.53 278.451C408.533 278.476 408.533 278.502 408.53 278.528L408.53 278.601Z" fill="#7869D8"/>
  <path d="M408.518 278.302C408.445 277.692 408.175 277.123 407.748 276.681C407.716 276.645 407.681 276.612 407.646 276.58C407.612 276.548 407.58 276.521 407.545 276.489C407.479 276.429 407.408 276.375 407.335 276.324C407.263 276.274 407.19 276.227 407.114 276.183C407.076 276.16 407.037 276.139 406.997 276.12C406.92 276.079 406.841 276.043 406.761 276.01C406.679 275.978 406.597 275.951 406.512 275.925C405.956 275.767 405.364 275.779 404.815 275.961C404.694 276.001 404.576 276.051 404.462 276.109C404.362 276.156 404.266 276.212 404.175 276.276C404.108 276.319 404.044 276.365 403.982 276.414C403.924 276.456 403.869 276.503 403.818 276.554C403.781 276.583 403.746 276.615 403.715 276.651C403.699 276.667 403.683 276.683 403.667 276.702L402.134 278.329L400.968 279.569L400.046 278.601L397.839 276.291L397.737 276.19C396.895 275.357 395.204 275.216 394.098 276.114L393.678 276.534C392.864 277.55 392.769 279.089 393.62 280.096L398.659 285.165L399.163 285.679L400.046 286.559L400.892 287.405L402.138 286.165L404.929 283.392L405.202 283.12L407.838 280.483C407.838 280.483 407.848 280.483 407.848 280.474L407.857 280.465C407.877 280.437 407.901 280.411 407.922 280.383C407.971 280.325 408.017 280.263 408.057 280.198C408.107 280.122 408.155 280.043 408.198 279.962C408.222 279.923 408.243 279.883 408.262 279.841C408.319 279.716 408.368 279.587 408.41 279.456C408.493 279.178 408.533 278.888 408.529 278.598L408.529 278.526C408.532 278.5 408.532 278.474 408.529 278.449C408.529 278.4 408.525 278.351 408.518 278.302Z" fill="#ACE4D9"/>
  <path opacity="0.5" d="M402.011 252.159C385.735 251.604 372.089 264.324 371.535 280.573C371.297 287.542 373.508 294.03 377.396 299.209L365.998 309.835L400.004 310.995C416.28 311.55 429.926 298.83 430.48 282.583C431.034 266.334 418.287 252.714 402.011 252.159Z" fill="#FFECF1"/>
</svg>
