<svg width="347" height="664" viewBox="0 0 347 664" fill="none" xmlns="http://www.w3.org/2000/svg">
<path opacity="0.2" fill-rule="evenodd" clip-rule="evenodd" d="M0 59.2821C0 59.2821 460.338 -74.1026 320.588 59.2821C237.442 138.641 267.556 145.747 299.036 153.177C320.467 158.235 342.532 163.442 329.925 191.698C314.737 225.739 281.095 245.938 250.517 262.651C276.526 247.346 302.841 228.438 315.582 199.05C327.64 171.234 306.535 166.108 286.035 161.129C255.924 153.815 227.12 146.819 306.65 68.6953C440.324 -62.6134 0.00104815 68.6953 0.00104815 68.6953V559.766C0.000349625 559.589 0 559.411 0 559.233V59.2821ZM125.451 663.983C204.19 664.96 295.426 624.233 320.588 559.233C345.772 494.174 283.803 429.682 236.645 380.603C210.5 353.394 188.907 330.922 189.24 315.717C189.517 303.114 199.204 293.221 213.519 283.734C194.888 294.975 181.334 306.096 181.013 321.139C180.695 336.107 201.349 358.23 226.357 385.015C271.465 433.33 330.739 496.818 306.65 560.865C283.162 623.315 199.474 663.004 125.451 663.983Z" fill="url(#paint0_linear_178_6185)"/>
<defs>
<linearGradient id="paint0_linear_178_6185" x1="110.681" y1="24.1982" x2="326.502" y2="607.377" gradientUnits="userSpaceOnUse">
<stop stop-color="#D4DFFF" stop-opacity="0.07"/>
<stop offset="0.541667" stop-color="#D4DFFF"/>
<stop offset="1" stop-color="#D4DFFF" stop-opacity="0"/>
</linearGradient>
</defs>
</svg>
