<svg width="51" height="52" viewBox="0 0 51 52" fill="none" xmlns="http://www.w3.org/2000/svg">
<path d="M22.3451 43.3407C23.7046 44.7704 25.7873 40.7632 26.3884 39.8881C28.3206 41.3144 33.5192 42.4319 32.7255 38.5484C33.7555 38.9254 36.9606 39.1048 35.9617 35.6452C38.5236 36.8957 40.7088 34.9387 40.3716 32.7362C42.6401 33.1472 44.0266 31.293 43.3884 29.0807C46.8045 24.789 46.607 19.2435 46.4111 16.7443C45.7572 8.4168 34.5727 11.5657 29.4271 8.31246L18.5052 8.3559C16.6538 11.6731 15.5044 9.8908 12.0075 10.3225C6.90225 11.0709 2.69157 23.9885 4.00404 24.5775L10.505 31.503C10.6222 32.7872 7.21755 34.9044 10.2052 36.4527C15.3559 38.2695 18.8822 40.7141 22.3547 43.3387L22.3451 43.3407Z" fill="#BBABE8" stroke="#BBABE8" stroke-width="1.28864" stroke-linecap="round"/>
<path d="M22.3451 43.3407C23.7046 44.7704 25.7873 40.7632 26.3884 39.8881C28.3206 41.3144 33.5192 42.4319 32.7255 38.5484C33.7555 38.9254 36.9606 39.1048 35.9617 35.6452C38.5236 36.8957 40.7088 34.9387 40.3716 32.7361C42.6401 33.1472 44.0266 31.293 43.3884 29.0807C46.8045 24.789 46.607 19.2435 46.4111 16.7443C45.7572 8.41679 34.5727 11.5657 29.4271 8.31244L18.5052 8.35589C16.6538 11.6731 15.5044 9.89078 12.0075 10.3225C6.90225 11.0709 2.69157 23.9884 4.00404 24.5775L10.505 31.503C10.6222 32.7872 7.21755 34.9044 10.2052 36.4527C15.3559 38.2695 18.8822 40.7141 22.3547 43.3387L22.3451 43.3407Z" fill="#BBABE8" stroke="#BBABE8" stroke-width="1.28864" stroke-linecap="round"/>
<path d="M10.6602 31.6312C10.6602 31.6312 5.60766 27.5073 4.61316 25.7811C1.50215 20.4013 5.28529 11.7632 12.0082 10.3253" stroke="black" stroke-width="1.41667" stroke-linecap="round" stroke-linejoin="round"/>
<path d="M27.418 30.9513L36.5484 35.9245" stroke="black" stroke-width="1.41667" stroke-linecap="round" stroke-linejoin="round"/>
<path d="M23.9912 34.3512L33.1995 38.954" stroke="black" stroke-width="1.41667" stroke-linecap="round" stroke-linejoin="round"/>
<path d="M41.2102 32.885L37.5977 29.7981L31.7334 26.7275" stroke="black" stroke-width="1.41667" stroke-linecap="round" stroke-linejoin="round"/>
<path d="M26.5545 40.3721C32.6277 44.2438 34.1974 40.1628 33.2036 38.9597C35.1402 40.1107 37.6016 38.5935 36.5547 35.9259C39.2776 37.2342 41.5286 35.1935 41.2148 32.8921C43.5708 33.3107 45.0363 31.3748 44.3563 29.0728C49.117 25.825 47.927 15.5932 44.2863 11.1094C37.708 10.076 36.4947 9.43634 29.4255 8.31646L19.8418 7.87836C18.4215 7.50365 16.951 8.28232 16.4566 9.67256C15.924 11.6672 15.2688 13.1937 13.9073 15.607C13.3912 16.8721 13.9816 18.3192 15.2333 18.8568C16.5848 19.1945 17.2025 18.5834 18.3925 17.6626C19.9473 16.1736 20.254 15.5404 21.0877 14.4219L30.7494 18.8164L39.7594 23.8909C41.5401 25.0937 43.3095 28.0304 44.3706 29.0766" stroke="black" stroke-width="1.41667" stroke-linecap="round" stroke-linejoin="round"/>
<path d="M22.3199 38.8562C23.1054 37.81 24.2083 37.6429 25.2552 38.2185C26.2504 38.794 26.9828 39.8916 26.3021 41.0965L25.0455 43.293C24.26 44.3392 22.7944 44.4958 21.7999 43.7638C20.9259 43.109 20.6723 41.9803 21.0378 41.0467C22.3199 38.8551 21.0378 41.0467 22.3199 38.8551V38.8562Z" stroke="black" stroke-width="1.41667" stroke-linecap="round" stroke-linejoin="round"/>
<path d="M18.3033 36.6108C19.0888 35.5646 20.1917 35.3975 21.2386 35.9731C22.2338 36.5486 22.9662 37.6462 22.2855 38.8511L21.0289 41.0476C20.2434 42.0938 18.7778 42.2504 17.7833 41.5185C16.9093 40.8636 16.6557 39.7349 17.0212 38.8013C18.3033 36.6097 17.0212 38.8013 18.3033 36.6097V36.6108Z" stroke="black" stroke-width="1.41667" stroke-linecap="round" stroke-linejoin="round"/>
<path d="M14.2935 34.3725C15.079 33.3263 16.1819 33.1591 17.2288 33.7348C18.224 34.3103 18.9565 35.4079 18.2757 36.6127L17.0192 38.8093C16.2336 39.8555 14.7681 40.012 13.7736 39.2801C12.8995 38.6252 12.6459 37.4965 13.0114 36.5629C14.2935 34.3713 13.0114 36.5629 14.2935 34.3713V34.3725Z" stroke="black" stroke-width="1.41667" stroke-linecap="round" stroke-linejoin="round"/>
<path d="M10.2925 32.1271C11.0781 31.0809 12.1809 30.9137 13.2279 31.4894C14.2231 32.0649 14.9555 33.1625 14.2748 34.3673L13.0182 36.5639C12.2326 37.6101 10.7671 37.7666 9.7726 37.0347C8.89852 36.3799 8.64494 35.2511 9.01044 34.3175C10.2925 32.126 9.01044 34.3175 10.2925 32.126V32.1271Z" stroke="black" stroke-width="1.41667" stroke-linecap="round" stroke-linejoin="round"/>
</svg>
