<svg width="131" height="26" viewBox="0 0 131 26" fill="none" xmlns="http://www.w3.org/2000/svg">
<g clip-path="url(#clip0_178_6146)">
<path d="M78.7762 5.43213L75.3549 14.832C75.2842 15.0376 75.2039 15.2271 75.1236 15.4134C75.0722 15.5291 75.024 15.6447 74.9726 15.7475C74.963 15.7636 74.9565 15.7829 74.9469 15.7989C74.9116 15.8728 74.873 15.9499 74.8312 16.0206C73.9607 17.5594 72.3158 18.5938 70.4301 18.5938H70.3916C68.6086 18.5777 67.0859 17.7361 66.1992 16.329C67.2433 15.8471 67.5324 15.5805 68.0978 15.0825C68.5925 15.8278 69.4342 16.3258 70.3916 16.3354H70.4301C70.504 16.3354 70.5747 16.329 70.6518 16.3258C71.2493 16.2969 71.7119 16.1266 72.0781 15.7989C72.4444 15.5323 72.7399 15.1789 72.9455 14.7677L72.8491 14.5428C72.8491 14.5364 72.8556 14.5364 72.8556 14.5332L71.3071 10.8773L70.2952 8.48723L69.0037 5.43213H71.6541L73.135 9.26787L74.0956 11.7479L74.4971 10.5368L76.1805 5.43213H78.7762Z" fill="#E6EEFF"/>
<path d="M33.7225 12.6981H39.6175V14.9982H29.7422V13.3406L35.65 7.79577H29.7422V5.49561H39.6175V7.2914L33.7225 12.6981Z" fill="#E6EEFF"/>
<path d="M41.7484 2.1435C41.9251 1.79655 42.2432 1.52348 42.619 1.40783C43.647 1.093 44.5947 1.89613 44.5947 2.85668C44.5947 3.67266 43.9105 4.35692 43.0752 4.35692C42.0215 4.35692 41.1927 3.23254 41.7484 2.1435ZM41.8577 15V5.49737H44.3088V15H41.8577Z" fill="#E6EEFF"/>
<path d="M55.3538 6.69074C56.2661 7.65771 56.7223 8.8367 56.7223 10.2438C56.7223 11.6477 56.2661 12.8459 55.3538 13.8161C54.4607 14.7831 53.3588 15.2585 52.0834 15.2585C50.7534 15.2585 49.7287 14.8023 49.0058 13.8707V18.7923H46.5547V5.49247H49.0058V6.61364C49.7287 5.68201 50.7534 5.22583 52.0834 5.22583C53.3588 5.22904 54.4607 5.72377 55.3538 6.69074ZM51.6305 12.923C52.3886 12.923 53.0183 12.6757 53.513 12.1809C54.0238 11.6701 54.2712 11.0212 54.2712 10.2438C54.2712 9.46314 54.0238 8.81742 53.513 8.3227C53.0183 7.81191 52.3918 7.56454 51.6305 7.56454C50.8691 7.56454 50.2427 7.81191 49.7479 8.3227C49.2532 8.81742 49.0058 9.46314 49.0058 10.2438C49.0058 11.0212 49.2532 11.6701 49.7479 12.1809C50.2427 12.6789 50.8691 12.923 51.6305 12.923Z" fill="#E6EEFF"/>
<path d="M67.2522 6.69074C68.1646 7.65771 68.6207 8.8367 68.6207 10.2438C68.6207 11.6477 68.1646 12.8459 67.2522 13.8161C66.3591 14.7831 65.2572 15.2585 63.9819 15.2585C62.6519 15.2585 61.6271 14.8023 60.9043 13.8707V18.7923H58.4531V5.49247H60.9043V6.61364C61.6271 5.68201 62.6519 5.22583 63.9819 5.22583C65.254 5.22904 66.3591 5.72377 67.2522 6.69074ZM63.5257 12.923C64.2838 12.923 64.9135 12.6757 65.4082 12.1809C65.919 11.6701 66.1664 11.0212 66.1664 10.2438C66.1664 9.46314 65.919 8.81742 65.4082 8.3227C64.9135 7.81191 64.2871 7.56454 63.5257 7.56454C62.7643 7.56454 62.1379 7.81191 61.6432 8.3227C61.1484 8.81742 60.9011 9.46314 60.9011 10.2438C60.9011 11.0212 61.1484 11.6701 61.6432 12.1809C62.1379 12.6789 62.7643 12.923 63.5257 12.923Z" fill="#E6EEFF"/>
<path d="M80.5084 13.8242C79.5575 12.854 79.082 11.6782 79.082 10.2518C79.082 8.82548 79.5575 7.64649 80.5084 6.67952C81.4786 5.70934 82.6736 5.23389 84.1 5.23389C85.944 5.23389 87.5759 6.18479 88.3566 7.68504L86.2459 8.91864C85.8669 8.138 85.0509 7.64649 84.0807 7.64649C82.619 7.64649 81.5364 8.7291 81.5364 10.2518C81.5364 10.9939 81.7838 11.6204 82.256 12.1119C82.7314 12.5873 83.3386 12.8347 84.0807 12.8347C85.0702 12.8347 85.8861 12.3592 86.2684 11.5786L88.3951 12.7961C87.5599 14.2996 85.944 15.2666 84.1 15.2666C82.6736 15.2666 81.4786 14.7911 80.5084 13.8242Z" fill="#C3CFFE"/>
<path d="M92.2207 7.12988C92.6769 5.91234 93.8173 5.30518 95.1087 5.30518V8.04224C94.3666 7.94908 93.6824 8.10006 93.0945 8.49842C92.5066 8.89677 92.2207 9.54249 92.2207 10.4548V14.9973H89.7695V5.49471H92.2207V7.12988Z" fill="#C3CFFE"/>
<path d="M100.698 15.2666C99.2906 15.2666 98.0923 14.7911 97.1253 13.8242C96.1551 12.854 95.6797 11.6557 95.6797 10.2518C95.6797 8.84476 96.1551 7.66576 97.1253 6.69879C98.0923 5.73183 99.2906 5.23389 100.698 5.23389C102.102 5.23389 103.3 5.72861 104.27 6.69879C105.24 7.66576 105.735 8.84476 105.735 10.2518C105.735 11.6557 105.24 12.854 104.27 13.8242C103.3 14.7911 102.102 15.2666 100.698 15.2666ZM100.698 12.87C101.44 12.87 102.044 12.6227 102.542 12.1312C103.036 11.6364 103.284 11.01 103.284 10.2486C103.284 9.48726 103.036 8.86082 102.542 8.36609C102.047 7.87136 101.44 7.624 100.698 7.624C99.9556 7.624 99.3484 7.87136 98.8537 8.36609C98.3782 8.86082 98.1341 9.48726 98.1341 10.2486C98.1341 11.0068 98.3814 11.6364 98.8537 12.1312C99.3484 12.6259 99.9556 12.87 100.698 12.87Z" fill="#C3CFFE"/>
<path d="M117.778 5.49561H120.38L117.36 14.9982H115.022L113.274 9.2414L111.526 14.9982H109.191L106.168 5.49561H108.773L110.389 11.3295L112.118 5.49561H114.434L116.162 11.3488L117.778 5.49561Z" fill="#C3CFFE"/>
<path d="M128.549 1.70337H131V15.0064H128.549V13.8852C127.83 14.8169 126.802 15.273 125.472 15.273C124.199 15.273 123.094 14.7976 122.185 13.8306C121.292 12.8604 120.836 11.6622 120.836 10.2583C120.836 8.85122 121.292 7.67222 122.185 6.70526C123.098 5.73829 124.199 5.24035 125.472 5.24035C126.802 5.24035 127.83 5.69653 128.549 6.62816V1.70337ZM125.925 12.9311C126.686 12.9311 127.312 12.6837 127.807 12.189C128.302 11.6782 128.549 11.0293 128.549 10.2519C128.549 9.47123 128.302 8.82552 127.807 8.33079C127.312 7.82 126.686 7.57264 125.925 7.57264C125.166 7.57264 124.537 7.82 124.026 8.33079C123.531 8.82552 123.284 9.47123 123.284 10.2519C123.284 11.0293 123.531 11.6782 124.026 12.189C124.54 12.687 125.166 12.9311 125.925 12.9311Z" fill="#C3CFFE"/>
<path d="M22.1439 11.6895C23.249 10.5844 23.249 8.78218 22.1439 7.67708C21.0291 6.56234 19.2462 6.56234 18.1475 7.66102L17.0809 8.72757C16.8946 8.9139 16.5926 8.9139 16.4063 8.72757L15.2177 7.53894C14.7358 7.05706 14.1029 6.7326 13.4251 6.69084C12.6444 6.64265 11.9024 6.92535 11.353 7.47148C10.8037 8.02082 10.521 8.76291 10.5724 9.54355C10.6141 10.2246 10.9386 10.8543 11.4205 11.3361L14.1383 14.0539L16.9589 16.8745L22.1439 11.6895Z" fill="#8EDACB"/>
<path d="M17.2883 4.09186H16.2667C16.0129 4.09186 15.8041 3.88626 15.8041 3.62926V2.9482C15.8041 2.47917 15.425 2.1001 14.956 2.1001H2.79342C2.32439 2.1001 1.94531 2.47917 1.94531 2.9482V10.3177C1.94531 14.0924 5.17068 17.1283 9.00964 16.8134C9.59432 16.7652 10.0698 17.1797 10.0698 17.7643V23.7685L16.9638 16.8777L15.3511 15.265C15.531 15.4449 15.531 15.7372 15.3511 15.9171L14.6283 16.6399C14.4484 16.8199 14.1561 16.8199 13.9762 16.6399L9.98303 12.65C8.7687 11.4357 8.31252 9.66557 8.84901 7.91475C8.91326 7.70594 8.99679 7.50355 9.09637 7.31401C9.9509 5.68205 11.5315 4.74721 13.2566 4.74721C14.4934 4.74721 15.5214 5.09416 16.7486 6.32134L16.7775 6.29243C17.0731 5.99688 17.4007 5.75273 17.7477 5.55034V3.63247C17.7509 3.88626 17.5453 4.09186 17.2883 4.09186Z" fill="url(#paint0_linear_178_6146)"/>
<path d="M16.9621 16.8774L10.068 23.7715V17.7673C10.068 17.1794 9.59258 16.7682 9.0079 16.8164C5.16894 17.1312 1.94357 14.0954 1.94357 10.3207V2.94793C1.94357 2.4789 2.32265 2.09982 2.79168 2.09982H14.9543C15.4233 2.09982 15.8024 2.4789 15.8024 2.94793V3.62898C15.8024 3.88277 16.008 4.09158 16.265 4.09158H17.2866C17.5403 4.09158 17.7492 3.88598 17.7492 3.62898V3.06679V2.94793C17.7492 1.40592 16.4995 0.15625 14.9575 0.15625H2.79168C1.24967 0.15625 0 1.40592 0 2.94793V10.3174C0 14.8728 3.61408 18.5961 8.12445 18.776V23.9289C8.12445 24.5521 8.40073 25.1593 8.91473 25.5159C9.99093 26.2033 10.929 25.6636 11.2856 25.307L23.5253 13.0674C25.3885 11.2041 25.3885 8.17148 23.5092 6.28894C21.9511 4.73087 19.5739 4.48672 17.7524 5.54685C17.4054 5.74924 17.0777 5.99018 16.7822 6.28894L16.7533 6.31786C15.5261 5.09068 14.4981 4.74372 13.2613 4.74372C11.5361 4.74372 9.95559 5.67857 9.10106 7.31053C9.00147 7.50328 8.91795 7.70566 8.8537 7.91127C8.31721 9.66209 8.77338 11.4322 9.98771 12.6465L13.9744 16.6397C14.1543 16.8196 14.4467 16.8196 14.6266 16.6397L15.3494 15.9169C15.5293 15.737 15.5293 15.4446 15.3494 15.2647L11.4237 11.3422C10.9418 10.8604 10.6174 10.2275 10.5756 9.54965C10.5274 8.76901 10.8101 8.0237 11.3562 7.47758C11.9056 6.92824 12.6477 6.64875 13.4283 6.69693C14.1094 6.7387 14.7422 7.06316 15.2209 7.54504L16.4095 8.73367C16.5959 8.92 16.8978 8.92 17.0842 8.73367L18.1507 7.66711C19.2462 6.57165 21.0323 6.57165 22.1471 7.68318C23.2522 8.78828 23.2522 10.5905 22.1471 11.6956L16.9621 16.8774Z" fill="#180A33"/>
</g>
<defs>
<linearGradient id="paint0_linear_178_6146" x1="9.84652" y1="2.1001" x2="9.84652" y2="23.7685" gradientUnits="userSpaceOnUse">
<stop stop-color="#8884FB"/>
<stop offset="1" stop-color="#7C6BF7"/>
</linearGradient>
<clipPath id="clip0_178_6146">
<rect width="131" height="25.6873" fill="white" transform="translate(0 0.15625)"/>
</clipPath>
</defs>
</svg>
